<svg width="60" height="60" viewBox="0 0 60 60" fill="none" xmlns="http://www.w3.org/2000/svg">
<path d="M30 60C46.5685 60 60 46.5685 60 30C60 13.4315 46.5685 0 30 0C13.4315 0 0 13.4315 0 30C0 46.5685 13.4315 60 30 60Z" fill="#AED8E9"/>
<path d="M30 7.92453C30.9378 7.92453 31.6981 7.16426 31.6981 6.22642C31.6981 5.28858 30.9378 4.52831 30 4.52831C29.0622 4.52831 28.3019 5.28858 28.3019 6.22642C28.3019 7.16426 29.0622 7.92453 30 7.92453Z" fill="black" fill-opacity="0.1"/>
<path d="M6.22642 31.6981C7.16426 31.6981 7.92453 30.9378 7.92453 30C7.92453 29.0622 7.16426 28.3019 6.22642 28.3019C5.28858 28.3019 4.52831 29.0622 4.52831 30C4.52831 30.9378 5.28858 31.6981 6.22642 31.6981Z" fill="black" fill-opacity="0.1"/>
<path d="M53.7736 31.6981C54.7114 31.6981 55.4717 30.9378 55.4717 30C55.4717 29.0622 54.7114 28.3019 53.7736 28.3019C52.8357 28.3019 52.0755 29.0622 52.0755 30C52.0755 30.9378 52.8357 31.6981 53.7736 31.6981Z" fill="black" fill-opacity="0.1"/>
<path d="M30 55.4717C30.9378 55.4717 31.6981 54.7114 31.6981 53.7736C31.6981 52.8357 30.9378 52.0755 30 52.0755C29.0622 52.0755 28.3019 52.8357 28.3019 53.7736C28.3019 54.7114 29.0622 55.4717 30 55.4717Z" fill="black" fill-opacity="0.1"/>
<path fill-rule="evenodd" clip-rule="evenodd" d="M30 9.62264L31.1321 29.434H28.8679L30 9.62264Z" fill="#1B416D"/>
<path fill-rule="evenodd" clip-rule="evenodd" d="M40.018 40.018L29.6115 31.2125L31.2125 29.6115L40.018 40.018Z" fill="#1B416D"/>
<path d="M30 32.2642C31.2505 32.2642 32.2642 31.2505 32.2642 30C32.2642 28.7495 31.2505 27.7358 30 27.7358C28.7495 27.7358 27.7358 28.7495 27.7358 30C27.7358 31.2505 28.7495 32.2642 30 32.2642Z" fill="#123045"/>
</svg>
