<svg width="44" height="44" viewBox="0 0 44 44" fill="none" xmlns="http://www.w3.org/2000/svg">
<path d="M22 40.3333C31.1117 40.3333 38.5 32.945 38.5 23.8333C29.3883 23.8333 22 31.2217 22 40.3333ZM10.2667 18.7917C10.2667 21.3217 12.32 23.375 14.85 23.375C15.8217 23.375 16.7017 23.0817 17.4533 22.5683L17.4167 22.9167C17.4167 25.4467 19.47 27.5 22 27.5C24.53 27.5 26.5833 25.4467 26.5833 22.9167L26.5467 22.5683C27.28 23.0817 28.1783 23.375 29.15 23.375C31.68 23.375 33.7333 21.3217 33.7333 18.7917C33.7333 16.9583 32.6517 15.4 31.1117 14.6667C32.6517 13.9333 33.7333 12.375 33.7333 10.5417C33.7333 8.01168 31.68 5.95834 29.15 5.95834C28.1783 5.95834 27.2983 6.25168 26.5467 6.76501L26.5833 6.41668C26.5833 3.88668 24.53 1.83334 22 1.83334C19.47 1.83334 17.4167 3.88668 17.4167 6.41668L17.4533 6.76501C16.72 6.25168 15.8217 5.95834 14.85 5.95834C12.32 5.95834 10.2667 8.01168 10.2667 10.5417C10.2667 12.375 11.3483 13.9333 12.8883 14.6667C11.3483 15.4 10.2667 16.9583 10.2667 18.7917ZM22 10.0833C24.53 10.0833 26.5833 12.1367 26.5833 14.6667C26.5833 17.1967 24.53 19.25 22 19.25C19.47 19.25 17.4167 17.1967 17.4167 14.6667C17.4167 12.1367 19.47 10.0833 22 10.0833ZM5.5 23.8333C5.5 32.945 12.8883 40.3333 22 40.3333C22 31.2217 14.6117 23.8333 5.5 23.8333Z" fill="#2575FC"/>
</svg>
