<svg width="188" height="241" viewBox="0 0 188 241" fill="none" xmlns="http://www.w3.org/2000/svg">
<path fill-rule="evenodd" clip-rule="evenodd" d="M124.159 35.9687C127.378 32.1904 129.556 27.5601 129.192 22.3716C128.143 7.42233 107.333 10.711 103.285 18.2561C99.2374 25.8013 99.7185 44.9401 104.95 46.2886C107.036 46.8264 111.481 45.5091 116.005 42.7825L113.165 62.8698H129.93L124.159 35.9687Z" fill="#B28B67"/>
<path fill-rule="evenodd" clip-rule="evenodd" d="M95.8582 7.79637C96.2053 6.57604 97.1392 5.53119 98.3976 5.22121C98.7028 5.14602 99.018 5.11565 99.332 5.12831C99.4446 5.13281 99.4762 5.16529 99.5288 5.08652C99.5679 5.02812 99.5688 4.88545 99.5848 4.81682C99.6348 4.60341 99.6974 4.39266 99.7746 4.18737C100.038 3.48717 100.48 2.86749 101.014 2.34548C102.012 1.36889 103.36 0.694889 104.76 0.572953C105.527 0.50625 106.288 0.630801 107.013 0.880179C107.388 1.00927 107.752 1.17002 108.106 1.34774C108.213 1.40123 108.559 1.66322 108.666 1.64625C108.784 1.62753 109.022 1.33366 109.118 1.25989C110.307 0.348027 111.774 -0.0104878 113.255 0.000232897C114.926 0.0128167 116.535 0.0963096 117.928 1.11492C118.223 1.33058 118.504 1.5667 118.772 1.8153C118.913 1.94618 119.049 2.08197 119.179 2.2234C119.258 2.30873 119.334 2.39599 119.408 2.48558C119.533 2.63766 119.513 2.68762 119.687 2.58151C120.358 2.17404 121.135 1.98348 121.918 2.07968C122.383 2.13684 122.835 2.27639 123.265 2.46007C123.411 2.5226 123.749 2.77203 123.905 2.77446C124.06 2.77684 124.393 2.54563 124.553 2.48686C125.413 2.16936 126.34 2.0911 127.244 2.23781C128.176 2.3892 129.092 2.76125 129.882 3.27537C130.262 3.52268 130.594 3.79669 130.86 4.16443C130.975 4.3232 131.079 4.49115 131.209 4.63837C131.286 4.72457 131.437 4.81301 131.478 4.9221C131.453 4.85678 132.498 4.45418 132.596 4.42844C133.121 4.29132 133.656 4.31912 134.17 4.48831C135.137 4.80645 135.968 5.5199 136.651 6.25138C137.002 6.6271 137.309 7.04241 137.57 7.48488C137.695 7.69682 137.809 7.91482 137.914 8.13745C137.964 8.2453 137.998 8.38022 138.065 8.47739C138.151 8.60258 138.209 8.60496 138.364 8.65956C139.156 8.93673 139.877 9.4059 140.426 10.0398C140.982 10.6812 141.342 11.4711 141.493 12.3028C141.502 12.3518 141.507 12.5549 141.536 12.5814C141.575 12.6179 141.734 12.6017 141.795 12.6088C142.003 12.6333 142.21 12.6696 142.414 12.718C142.791 12.8071 143.157 12.9382 143.504 13.1097C144.855 13.7781 145.821 15.0313 146.294 16.4414C146.79 17.9213 146.781 19.6167 146.188 21.0689C146.092 21.3034 145.978 21.5311 145.844 21.7465C145.762 21.8787 145.736 21.879 145.789 22.0178C145.848 22.1721 145.957 22.3221 146.028 22.4728C146.258 22.965 146.419 23.4869 146.521 24.0199C146.688 24.8944 146.771 25.8133 146.606 26.6944C146.53 27.1035 146.396 27.5034 146.193 27.8678C146.089 28.0536 145.968 28.2298 145.831 28.3928C145.76 28.4775 145.685 28.5583 145.606 28.6357C145.56 28.6799 145.501 28.7187 145.463 28.7681C145.369 28.8885 145.349 28.7895 145.398 28.9664C145.465 29.2137 145.619 29.4577 145.712 29.6984C145.809 29.9464 145.896 30.1978 145.976 30.4516C146.138 30.9657 146.275 31.4891 146.361 32.0215C146.525 33.0436 146.496 34.1328 146.013 35.0709C145.806 35.4721 145.51 35.8241 145.15 36.098C144.974 36.2319 144.783 36.3474 144.583 36.4422C144.48 36.491 144.349 36.5119 144.302 36.6114C144.252 36.7182 144.327 36.9305 144.344 37.05C144.492 38.0896 144.567 39.1812 144.258 40.2C143.973 41.1384 143.347 41.9669 142.533 42.5154C140.954 43.5795 138.827 43.5195 137.168 42.6676C136.736 42.4455 136.331 42.1698 135.971 41.8446C135.052 43.0814 133.161 43.0423 131.819 42.6899C130.146 42.2508 128.803 41.0876 128.03 39.5592C126.972 40.8466 124.753 40.4289 124.019 39.0323C123.84 38.6905 123.734 38.3137 123.681 37.9325C123.654 37.732 123.671 37.5298 123.65 37.3309C123.624 37.0775 123.455 36.8313 123.357 36.5861C123.168 36.109 123.05 35.6162 123.045 35.1016C123.043 34.8329 123.077 34.571 123.102 34.3045C123.125 34.0645 123.059 33.841 123.021 33.6042C123.45 33.6748 123.973 33.5591 124.377 33.4347C124.773 33.3127 125.145 32.9911 125.425 32.6975C126.075 32.0156 126.472 31.1217 126.744 30.232C127.34 28.2794 127.096 25.9367 125.132 24.8651C124.217 24.3658 121.476 24.3675 120.386 24.6142C119.24 24.8736 117.941 27.4019 117.877 27.6395C117.838 27.7866 117.858 27.9686 117.723 28.0666C117.426 28.2821 116.936 27.9081 116.717 27.7236C116.339 27.4051 116.069 26.9813 115.836 26.5517C115.327 25.6158 114.917 24.6122 114.627 23.5877C114.404 22.7978 114.261 21.9833 113.969 21.2136C113.679 20.4476 113.221 19.763 112.509 19.3292C111.734 18.8571 110.847 18.6086 109.996 18.3119C109.153 18.018 108.325 17.6587 107.672 17.0349C107.528 16.8977 107.389 16.752 107.273 16.5905C107.182 16.463 107.092 16.219 106.953 16.1381C106.736 16.0124 106.421 16.3394 106.234 16.4581C105.311 17.0439 104.542 17.861 103.921 18.7535C103.304 19.6412 102.798 20.4954 102.386 21.4866C102.081 22.2217 101.89 23.1632 101.353 23.7657C101.114 24.0347 99.332 24.1975 98.7549 23.9626C98.1778 23.7277 97.531 23.1179 97.3373 22.7357C97.139 22.3445 97.0916 21.9148 97.1764 21.4866C97.2262 21.2346 97.328 20.9993 97.3836 20.7518C97.4305 20.544 97.4731 20.3475 97.5742 20.1571C97.766 19.7962 98.0936 19.5368 98.4887 19.4284C98.0775 19.0493 97.7368 18.5958 97.5011 18.0889C97.2562 17.5623 97.0486 16.9218 96.9897 16.3438C96.9418 15.8743 97.0157 15.3879 97.2727 14.9844C97.5423 14.5612 98.02 14.285 98.4332 14.021C97.802 13.5271 97.2617 12.9265 96.8175 12.2615C95.9538 10.9683 95.4195 9.33814 95.8582 7.79637Z" fill="#191847"/>
<path fill-rule="evenodd" clip-rule="evenodd" d="M176.733 150.189H96.4C90.2273 150.189 85.2232 155.193 85.2232 161.366V225.632C85.2232 231.805 90.2273 236.809 96.4 236.809H176.733C182.906 236.809 187.91 231.805 187.91 225.632V161.366C187.91 155.193 182.906 150.189 176.733 150.189ZM165.557 169.748C167.1 169.748 168.351 170.999 168.351 172.542V214.455C168.351 215.999 167.1 217.25 165.557 217.25H107.577C106.034 217.25 104.783 215.999 104.783 214.455V172.542C104.783 170.999 106.034 169.748 107.577 169.748H165.557Z" fill="#C5CFD6"/>
<path fill-rule="evenodd" clip-rule="evenodd" d="M35.2704 234.476C44.2207 214.666 50.6936 197.417 53.2917 188.316C57.7404 172.733 61.1247 159.021 61.9801 153.9C64.0198 141.689 46.2893 140.978 43.9457 147.046C40.3985 156.232 34.206 186.41 26.7653 231.994L35.2704 234.476ZM139.09 172.307C130.878 169.061 102.12 158.903 88.2499 156.029C84.2642 155.204 80.4012 154.436 76.7693 153.743C65.9739 151.682 60.381 171.157 70.7782 172.654C96.6714 176.38 133.379 180.229 136.521 180.661C140.924 181.266 144.251 174.347 139.09 172.307Z" fill="#B28B67"/>
<path fill-rule="evenodd" clip-rule="evenodd" d="M70.1435 148.384L114.562 125.772V120.85H109.28C66.3066 131.8 44.3473 138.817 43.4019 141.902C43.3917 141.936 43.3824 141.969 43.3739 142.002C43.3523 142.03 43.3311 142.059 43.3102 142.088C34.7938 153.8 29.6934 210.981 28.0193 215.263L44.3386 217.698C50.5812 194.549 70.5537 178.423 70.0231 150.698C70.1664 149.885 70.2026 149.113 70.1435 148.384Z" fill="#1F28CF"/>
<path fill-rule="evenodd" clip-rule="evenodd" d="M110.872 161.813C114.936 160.999 118.679 160.273 121.881 159.712C142.568 156.083 148.6 145.01 145.033 120.85H106.919C100.693 122.638 68.3364 136.207 51.5484 143.424C40.4373 148.201 43.9399 165.42 50.2321 169.901C50.2663 170.176 50.3795 170.363 50.5812 170.447C84.4291 184.475 111.206 177.115 120.151 179.466L124.288 166.415L110.872 161.813Z" fill="#2B44FF"/>
<path fill-rule="evenodd" clip-rule="evenodd" d="M136.282 170.233C138.5 170.445 140.074 170.778 141.005 171.232C142.137 171.784 143.697 172.779 145.685 174.215C145.045 175.529 139.287 187.333 128.414 209.627C124.923 209.064 123.539 207.731 124.264 205.631C124.988 203.53 125.572 201.776 126.016 200.369L126.707 180.331C126.72 179.945 127.043 179.644 127.429 179.657C127.435 179.657 127.442 179.657 127.449 179.658L130.531 179.852C132.283 178.434 133.438 177.151 133.998 176.004C134.453 175.071 134.704 173.6 134.752 171.59L134.752 171.59C134.771 170.819 135.411 170.208 136.182 170.227C136.216 170.228 136.249 170.23 136.282 170.233Z" fill="#E4E4E4"/>
<path fill-rule="evenodd" clip-rule="evenodd" d="M39.3437 230.803C40.1252 232.889 40.5159 234.45 40.5159 235.486C40.5159 236.745 40.3061 238.584 39.8864 241C38.4251 241 25.2919 241 0.486836 241C-0.537019 237.616 0.0540087 235.788 2.25992 235.518C4.46583 235.248 6.29832 235.005 7.75738 234.787L26.0699 226.623C26.4223 226.466 26.8353 226.625 26.9924 226.977C26.9951 226.983 26.9977 226.989 27.0002 226.995L28.1773 229.851C30.2194 230.803 31.8788 231.28 33.1555 231.28C34.1929 231.28 35.6254 230.861 37.4532 230.023L37.4532 230.023C38.1546 229.701 38.9838 230.009 39.3054 230.711C39.3192 230.741 39.332 230.772 39.3437 230.803Z" fill="#E4E4E4"/>
<path fill-rule="evenodd" clip-rule="evenodd" d="M74.0154 109.758L54.2269 129.063C48.4692 131.519 43.7515 134.231 40.074 137.198C39.247 138.196 38.3466 140.107 42.2377 139.252C46.1288 138.397 50.2602 137.672 50.9915 138.938C51.7228 140.203 49.5679 142.142 50.9195 143.798C51.8205 144.902 54.8509 141.39 60.0104 133.263L80.5878 121.131L74.0154 109.758ZM161.849 112.481L147.251 112.538C156.264 141.635 161.13 157.074 161.849 158.855C163.465 162.861 160.045 168.961 158.582 172.24C163.346 174.372 162.838 166.477 168.848 169.273C174.334 171.825 178.507 176.449 184.844 172.538C185.623 172.058 186.477 170.247 184.414 168.833C179.275 165.309 171.868 159.14 170.867 157.11C169.502 154.341 166.496 139.465 161.849 112.481Z" fill="#B28B67"/>
<path fill-rule="evenodd" clip-rule="evenodd" d="M120.364 51.2264L114.323 50.1903C103.924 76.1696 85.7669 99.7751 59.853 121.007L79.4348 144.797C105.346 114.566 121.317 83.3757 120.364 51.2264Z" fill="#191847"/>
<path fill-rule="evenodd" clip-rule="evenodd" d="M146.696 127.137H92.9073C105.369 96.837 111.6 71.0979 111.6 49.9192L127.825 47.5017C140.576 68.01 144.178 93.26 146.696 127.137Z" fill="#DDE3E9"/>
<path fill-rule="evenodd" clip-rule="evenodd" d="M128.168 47.5132C128.166 47.5093 128.164 47.5055 128.162 47.5017H127.103C125.836 47.5453 123.905 47.624 121.312 47.7376L117.391 58.9418C116.977 72.6023 114.555 100.132 110.126 141.531H145.385C145.293 144.39 145.14 147.276 144.928 150.189H171.145C167.223 105.945 152.902 71.7162 128.181 47.5017L128.168 47.5132V47.5132Z" fill="#2F3676"/>
<path fill-rule="evenodd" clip-rule="evenodd" d="M143.056 104.946C142.053 122.769 139.54 135.056 135.519 141.806H145.376C145.808 128.983 145.034 116.696 143.056 104.946V104.946Z" fill="black" fill-opacity="0.1"/>
<path fill-rule="evenodd" clip-rule="evenodd" d="M137.537 120.151L120.151 112.068V120.151H137.537Z" fill="white" fill-opacity="0.2"/>
</svg>
