<svg width="150" height="288" viewBox="0 0 150 288" fill="none" xmlns="http://www.w3.org/2000/svg">
<path fill-rule="evenodd" clip-rule="evenodd" d="M62.5835 39.8289C60.4971 35.4407 59.6102 30.5103 61.2691 25.6964C66.0486 11.8264 84.8929 20.2087 86.8089 28.3688C88.7249 36.529 83.4209 54.5046 78.1323 54.4542C76.0232 54.4341 72.1542 52.0623 68.5676 48.338L66.163 68.0516L50.31 63.8039L62.5835 39.8289Z" fill="#D4A181"/>
<path fill-rule="evenodd" clip-rule="evenodd" d="M68.3366 40.3051C65.3597 43.5518 61.8794 45.6649 59.1631 44.9371C54.0039 43.5547 52.1837 35.6739 54.1709 28.2576C54.2408 27.997 54.3153 27.7396 54.3943 27.4854C47.9332 29.7682 41.7491 36.0233 34.5277 34.0883C24.7032 31.4558 26.1112 10.5942 39.8375 14.2721C49.1724 16.7734 53.3995 19.3648 56.8174 22.4378C58.1875 20.4466 59.8733 18.9155 61.6747 18.0136C62.1304 17.7133 62.7682 17.4801 63.5543 17.316C64.0397 17.1979 64.5284 17.1266 65.0167 17.1053C67.6382 16.8677 71.2607 17.1754 75.1581 18.0752C75.8859 18.2432 76.596 18.4255 77.2843 18.6199C78.2705 14.9845 82.0129 12.8297 85.654 13.8053C89.3021 14.7828 91.467 18.5325 90.4895 22.1806C89.5442 25.7086 86.006 27.8495 82.4746 27.1024C80.3182 27.1833 77.6384 26.9489 74.7495 26.3787C74.7474 27.4887 74.5818 28.7059 74.2253 30.0361C73.9106 31.2106 73.4472 32.4216 72.8696 33.6224C72.4501 32.7259 71.7551 32.028 70.9197 31.8041C68.583 31.178 66.4414 32.6645 65.8946 34.7054C65.2005 37.2957 66.1938 39.5703 68.3366 40.3051Z" fill="#191847"/>
<path fill-rule="evenodd" clip-rule="evenodd" d="M30.089 124.256L55.1386 210.576L66.9207 275.385H78.7464L66.9418 124.256H30.089Z" fill="#BA8B72"/>
<path fill-rule="evenodd" clip-rule="evenodd" d="M18.8314 124.256C20.5793 169.099 19.89 193.557 19.4988 197.631C19.1076 201.705 16.8867 228.991 1.75317 276.753H14.0529C34.0948 230.933 41.0913 203.648 43.3899 197.631C45.6886 191.614 52.4775 167.156 62.3891 124.256H18.8314Z" fill="#D4A181"/>
<path fill-rule="evenodd" clip-rule="evenodd" d="M29.5513 124.256C36.0671 153.959 47.3366 201.372 63.3599 266.495H80.6563C81.9338 199.652 76.4993 155.659 67.0879 124.256H29.5513Z" fill="#69A1AC"/>
<path fill-rule="evenodd" clip-rule="evenodd" d="M18.744 124.256C20.4559 169.099 16.0196 213.277 2.27756 267.193H20.7319C40.8106 222.058 55.2017 178.098 65.0371 124.256H18.744Z" fill="#89C5CC"/>
<path fill-rule="evenodd" clip-rule="evenodd" d="M0 285.643L0.678659 274.701C4.65211 275.863 9.62894 275.408 15.6092 273.334C22.0393 277.888 30.1341 280.999 39.8934 282.664C40.638 282.791 41.1386 283.498 41.0115 284.242C41.0033 284.291 40.9925 284.338 40.9791 284.385L40.0409 287.694H15.6092H1.35732L0 285.643Z" fill="#191847"/>
<path fill-rule="evenodd" clip-rule="evenodd" d="M64.281 285.643L64.9597 274.701C68.9331 275.863 73.9099 275.408 79.8902 273.334C86.3203 277.888 94.4151 280.999 104.174 282.664C104.919 282.791 105.42 283.498 105.292 284.242C105.284 284.291 105.273 284.338 105.26 284.385L104.322 287.694H79.8902H65.6383L64.281 285.643Z" fill="#191847"/>
<path fill-rule="evenodd" clip-rule="evenodd" d="M79.0187 85.8134L104.651 77.1325C109.353 73.2019 113.815 70.2922 118.038 68.4034C119.275 68.1254 121.343 68.1896 118.867 71.2035C116.392 74.2173 113.924 77.4988 114.703 78.6991C115.481 79.8993 118.13 78.8815 118.974 80.7964C119.537 82.0731 115.127 83.1555 105.744 84.0437L86.0172 96.6004L79.0187 85.8134ZM113.724 103.071L124.987 99.2405C127.394 94.0125 129.602 91.5579 131.612 91.8768C133.278 91.4321 129.376 97.8865 132.4 97.8003C135.423 97.7141 143.479 93.6731 144.517 94.9649C146.052 96.8761 143.571 101.476 141.236 103.57C136.87 107.484 133.645 108.516 125.991 109.264C121.989 109.655 117.49 111.06 112.492 113.478L113.724 103.071Z" fill="#D4A181"/>
<path fill-rule="evenodd" clip-rule="evenodd" d="M68.1376 80.9541C76.3404 82.3113 87.5634 82.5072 100.517 77.1665L103.293 88.176C93.8513 94.7338 81.397 99.2938 71.5663 97.2743C63.8192 95.6828 61.5007 85.5638 68.1376 80.9541Z" fill="#2026A2"/>
<path fill-rule="evenodd" clip-rule="evenodd" d="M76.277 99.2601C84.5869 102.96 99.6138 102.974 121.358 99.3014C124.581 110.695 125.608 118.594 124.436 122.998C105.268 129.071 89.5037 130.506 77.0624 128.591C76.1595 136.014 74.0306 142.854 69.8962 148.718C61.3967 160.772 27.3454 142.216 14.7522 142.466C11.495 116.37 28.0055 108.909 30.81 93.073C33.8813 75.7309 52.5154 51.4895 54.5645 51.8508L73.2506 55.1457C71.9459 68.5736 74.5612 84.087 76.277 99.2601Z" fill="#1F28CF"/>
</svg>
